<svg viewBox="0 0 1731.33 1072.54" xmlns="http://www.w3.org/2000/svg"><defs><style>.cls-1,.cls-17,.cls-21,.cls-23,.cls-28,.cls-29,.cls-33,.cls-5,.cls-6{fill:none;}.cls-2{fill:#c6ddff;}.cls-3{fill:#8dbffc;}.cls-4{fill:#edf3ff;}.cls-30,.cls-32,.cls-5,.cls-6{stroke:#016efc;}.cls-23,.cls-28,.cls-29,.cls-30,.cls-32,.cls-5,.cls-6{stroke-miterlimit:10;}.cls-17,.cls-23,.cls-28,.cls-29,.cls-32,.cls-33,.cls-5,.cls-6{stroke-width:1.8px;}.cls-5{opacity:0.25;isolation:isolate;}.cls-30,.cls-32,.cls-7{fill:#fff;}.cls-8{fill:#007bff;}.cls-9{fill:#ff5925;}.cls-10{fill:#6aacef;}.cls-11{fill:#d32502;}.cls-12{fill:#fac897;}.cls-13{fill:#f29d59;}.cls-14{fill:#013bff;}.cls-15{fill:#5b2f2e;}.cls-16{fill:#2b0d0d;}.cls-17,.cls-29{stroke:#035c8e;}.cls-17,.cls-21,.cls-33{stroke-linecap:round;stroke-linejoin:round;}.cls-18{fill:#c7ddff;}.cls-19{fill:#dcecff;}.cls-20{fill:#5d9fff;}.cls-21,.cls-23,.cls-33{stroke:#fff;}.cls-21,.cls-30{stroke-width:2.39px;}.cls-22{fill:#fcbc29;}.cls-24{fill:#ccd5dd;}.cls-25{fill:#04794a;}.cls-26{fill:#e8311f;}.cls-27{fill:#12a072;}.cls-28{stroke:#04794a;}.cls-31{fill:#e9ecf0;}</style></defs><g id="图层_2"><g id="图层_1-2"><rect height="1072.53" width="1731.31" x="0.03" class="cls-1"></rect><path d="M116.1,898.4s-398.66,41,281.5,102.26c0,0,56.86,4.16-21.38,22.18-76.16,17.45,40.1,25.31,47.79,25.77,211.94,11.21,1007.3,49.23,1112.92-2.77,0,0,69.07-25.42-65.52-34.32-90.26-5.89-5.52-10.17,0-10.63,103.06-9.48,279.92-36.17,195.48-104.11Z" class="cls-2"></path><path d="M635.66,994.3c163.85,0,296.68-12.93,296.68-28.88s-132.83-28.89-296.68-28.89S339,949.46,339,965.42,471.8,994.3,635.66,994.3Z" class="cls-3"></path><path d="M1363.81,987.6c82.39,0,149.18-8,149.18-17.91s-66.79-17.91-149.18-17.91-149.18,8-149.18,17.91S1281.41,987.6,1363.81,987.6Z" class="cls-3"></path><path d="M1670.34,897.82S1637.53,510.27,1328,442c-110.46-24.38-211.55-89.21-287.33-186.62-10.34-13.28-20.79-27.38-31.13-42.4C904.06,60.66,727.78,2.31,571.32,71.76c-50.35,22.3-99.92,56.38-144,107.34-56.75,65.75-93.61,151.49-106.61,243.81-12.61,90-44.34,241.38-117.65,281.59a109.82,109.82,0,0,0-20.69,14.33c-26.7,23.57-81.19,84.93-63.06,180.84Z" class="cls-4"></path><path d="M993.23,674.69h208.4" class="cls-5"></path><path d="M803.26,705.08h325.65" class="cls-5"></path><path d="M843.46,735.59h246.63" class="cls-5"></path><path d="M933.91,644.3h156.18" class="cls-5"></path><path d="M933.91,801.57h156.18" class="cls-5"></path><path d="M999.44,768.75h246.62" class="cls-5"></path><path d="M1007.81,709.94v20.68" class="cls-5"></path><path d="M937.17,709.94v20.68" class="cls-5"></path><path d="M869.37,709.94v20.68" class="cls-5"></path><path d="M1007.81,775.45v20.69" class="cls-5"></path><path d="M1074.91,775.45v20.69" class="cls-5"></path><path d="M1007.81,649.5v20.69" class="cls-5"></path><path d="M1074.91,709.94v20.68" class="cls-5"></path><path d="M1074.91,649.16v20.68" class="cls-5"></path><path d="M1040.33,679.55v20.68" class="cls-5"></path><path d="M1109.3,679.55v20.68" class="cls-5"></path><path d="M811.44,177.83v20.68" class="cls-5"></path><path d="M677,173H857.35" class="cls-5"></path><path d="M646.4,203.37H812.72" class="cls-5"></path><path d="M599.59,233.87H823.16" class="cls-5"></path><path d="M617.72,142.59H773.9" class="cls-5"></path><path d="M691.62,208.22V228.9" class="cls-5"></path><path d="M691.62,147.79v20.68" class="cls-5"></path><path d="M758.72,208.22V228.9" class="cls-5"></path><path d="M758.72,147.44v20.68" class="cls-5"></path><path d="M724.14,177.83v20.68" class="cls-5"></path><path d="M793.11,177.83v20.68" class="cls-5"></path><path d="M372.67,828.6H192.36" class="cls-5"></path><path d="M476.92,859.11h-240" class="cls-5"></path><path d="M431.89,798.22H275.72" class="cls-5"></path><path d="M358,803.42V824.1" class="cls-5"></path><path d="M290.89,803.07v20.68" class="cls-5"></path><path d="M325.48,833.46v20.8" class="cls-5"></path><path d="M1501.85,837.39H1321.54" class="cls-5"></path><path d="M1561.07,806.88H1405" class="cls-5"></path><path d="M1487.17,812.2v20.68" class="cls-5"></path><path d="M1420.07,811.74v20.79" class="cls-5"></path><path d="M1454.66,842.24v20.68" class="cls-5"></path><path d="M256.51,833.46v20.8" class="cls-5"></path><path d="M1109.3,741.48v20.8" class="cls-5"></path><path d="M1176.6,741.48v20.8" class="cls-5"></path><path d="M1040.33,741.48v20.8" class="cls-5"></path><path d="M973.82,741.48v20.8" class="cls-5"></path><path d="M905,679.78v20.8" class="cls-5"></path><path d="M35.4,897.66H1696" class="cls-6"></path><path d="M1107.33,989.45c135.56,0,245.45-10.29,245.45-23s-109.89-23-245.45-23-245.44,10.3-245.44,23S971.78,989.45,1107.33,989.45Z" class="cls-3"></path><path d="M1010.28,480.92H945.64v68.4h64.64Z" class="cls-3"></path><path d="M1111,348H844.84V503.68H1111Z" class="cls-2"></path><path d="M1085.65,488.89H870.16c-5.91,0-10.74-5.66-10.74-12.59V375.54c0-6.94,4.83-12.6,10.74-12.6h215.49c5.92,0,10.74,5.66,10.74,12.6V476.18C1096.39,483.23,1091.57,488.89,1085.65,488.89Z" class="cls-7"></path><path d="M935.29,384.55H880.12v60.89h55.17Z" class="cls-8"></path><path d="M901.5,408.12c0-3.81,2.76-6.93,6.3-6.93s6.31,3.12,6.31,6.93-2.76,6.93-6.31,6.93S901.5,411.93,901.5,408.12Zm16.75,11.67a15.34,15.34,0,0,0-5.62-3.93,9.85,9.85,0,0,0,3.74-7.85c0-5.21-3.84-9.48-8.57-9.48s-8.57,4.27-8.57,9.48a9.88,9.88,0,0,0,3.74,7.85,14,14,0,0,0-5.61,3.93A17.34,17.34,0,0,0,893,431.35h2.37c0-7.63,5.61-13.87,12.51-13.87s12.51,6.24,12.51,13.87h2.37A18.83,18.83,0,0,0,918.25,419.79Z" class="cls-7"></path><path d="M935.29,453.42H880.12v12.82h55.17Z" class="cls-9"></path><path d="M958.25,388.13h52" class="cls-6"></path><path d="M958.25,398.88H1075.6" class="cls-6"></path><path d="M958.25,409.74H1075.6" class="cls-6"></path><path d="M958.25,420.6H1075.6" class="cls-6"></path><path d="M958.25,431.35H1075.6" class="cls-6"></path><path d="M958.25,442.21H1075.6" class="cls-6"></path><path d="M958.25,453.07H1075.6" class="cls-6"></path><path d="M958.25,463.93h95.87" class="cls-6"></path><path d="M1166.55,598.43H1050.28v303.9l116.27-83.89Z" class="cls-10"></path><path d="M1050.28,902.33v62.74h116.27V818.44Z" class="cls-3"></path><path d="M1206.75,948H1005.84v20.8h200.91Z" class="cls-2"></path><path d="M978,537.07H813.11v12.14H978Z" class="cls-3"></path><path d="M626.2,949.82l-8.48-3.12L679.8,673.54l8.47,3Z" class="cls-11"></path><path d="M826.22,949.82l8.57-3.12L772.72,673.54l-8.58,3Z" class="cls-11"></path><path d="M827.89,682.09H635c-4.54,0-8.48-4.16-9.27-9.82L587.28,382.82c-.89-6.36,2.56-12.37,7.68-13.52s9.95,3.23,10.74,9.59l37.15,279.63h185c5.13,0,9.36,5.2,9.36,11.67S833.12,682.09,827.89,682.09Z" class="cls-9"></path><path d="M1487.57,161.08c37.92,0,68.68-36.06,68.68-80.54S1525.49,0,1487.57,0s-68.68,36.06-68.68,80.54S1449.64,161.08,1487.57,161.08Z" class="cls-3"></path><path d="M1487.57,151.72c33.52,0,60.69-31.87,60.69-71.18s-27.17-71.18-60.69-71.18-60.7,31.87-60.7,71.18S1454.05,151.72,1487.57,151.72Z" class="cls-4"></path><path d="M1487.57,39.52V80.65h26" class="cls-6"></path><path d="M614,377.5l6.8-4.62a1.37,1.37,0,0,0,.39-.35L643,350.23l.2-.23.09-.12a2.94,2.94,0,0,1,2-.81H655c1.77,0,3.15,1.62,3.15,3.7s-1.38,3.7-3.15,3.7h-6.6a2.42,2.42,0,0,0,.39.92c2,2.43,6.5,5.09,4.53,5.32,0,0,24.74.69,43.46-5.32a3,3,0,0,1,2.76,3.7c-1.78,8.67-11.43,30.28-76.76,36.17a2.67,2.67,0,0,1-2.56-1.5l-7.1-13.87A3.41,3.41,0,0,1,614,377.5Z" class="cls-12"></path><path d="M641,367.56c-4.54-2.19-2.66-8.43,1.77-9.24,2-.35,3.94-.58,6-.93a2.66,2.66,0,0,0,2.27,1.39l45.72-1.27a2.66,2.66,0,0,1,2.26,1.27C680.29,364.79,660.29,376.34,641,367.56Z" class="cls-13"></path><path d="M499.68,940.11C474.75,934.22,473.87,909,473.87,909H447.26c.89,2.42,1.09,6.24,1,10.17a44.38,44.38,0,0,1-6.6,21.95,23.15,23.15,0,0,0-3.16,10.52h81.69C514.46,942.31,499.68,940.11,499.68,940.11Z" class="cls-14"></path><path d="M438.4,951.78a29.93,29.93,0,0,0,1,10.05h82.77a16.47,16.47,0,0,0-2-10.05Z" class="cls-7"></path><path d="M437.9,550.13V915.5h21l21-365.37Z" class="cls-14"></path><path d="M485.3,550.13h-5.42l-31,365.37h37.74L514,594.39l3.74-44.26Z" class="cls-8"></path><path d="M441.84,955.94C416.92,950.05,416,924.86,416,924.86h-26.6c.88,2.42,1.08,6.24,1,10.17a44.38,44.38,0,0,1-6.6,22,23.48,23.48,0,0,0-3.15,10.86h81.88C457.12,958.14,441.84,955.94,441.84,955.94Z" class="cls-14"></path><path d="M380.66,968a31.34,31.34,0,0,0,1,9.7h82.77a16.94,16.94,0,0,0-1.78-9.7Z" class="cls-7"></path><path d="M384.89,550.13l-.29,53-2.07,326.42H431.3l26.41-321,4.73-58.47Z" class="cls-8"></path><path d="M496,126.53A34.11,34.11,0,0,0,491.21,113c-5.13-8.09-15.57-18.84-32.22-9.82a37.84,37.84,0,0,0-11.23,9.24c-3.85,4.51-11.53,12.25-20.2,14.91a25.58,25.58,0,0,0-7.69,4.16C407.46,140.86,365,174.94,389.62,243c6.9,19.18,21.09,25,32.91,25.77,2.66.11,5.13-3.93,7.79-4.86,4.73-20.22-2.57-29.34.39-47.14,6.7-33.39,26.8-45.87,49.46-63.09a31.12,31.12,0,0,1,.59-9.71s6.9-3,11.34,14.56C492,158.53,499.78,151.83,496,126.53Z" class="cls-15"></path><path d="M490.32,190.19a165.53,165.53,0,0,1-7.49-21.6c-12.21,3.46-14.28,27.61-11.72,39.51,3.45,16.76-4,33.86,13.4,54.08a24.9,24.9,0,0,0,8.08-5.43C502.05,247.16,507.27,228.21,490.32,190.19Z" class="cls-15"></path><path d="M478.6,206.14c-2.57-11.9-2.17-26.34,4.23-37.55a88.76,88.76,0,0,1-2.75-14.79c-22.57,17.21-55,27-61.59,60.43-2.86,17.79,2.17,35.7,11.73,49.8,4.83-1.62,9.56-5.31,13.5-12.48A106.49,106.49,0,0,1,462,260.1a24.16,24.16,0,0,0,22.37,2.08C487.37,245,482.05,222.78,478.6,206.14Z" class="cls-16"></path><path d="M416,271.54s22.46-3.93,22.56-39.75c10.55-23.8,30-11.67,33.4,11.9a120.71,120.71,0,0,0,1.68,36.06s-4.83,50.37-24.34,60.08C449.43,340,408.64,300,416,271.54Z" class="cls-12"></path><path d="M438.59,233.76a135.83,135.83,0,0,0-1.38-19.07,69.86,69.86,0,0,1,37.84,14.1,71.83,71.83,0,0,0-3.05,14.9C461.65,268.54,450.42,237,438.59,233.76Z" class="cls-13"></path><path d="M491.9,151.14s3.45,72.56-24.63,85.39a9.2,9.2,0,0,1-5.82.58c-6.3-1.5-20.49-7.4-27.59-31.43,0,0-8.27-2.66-11.33-9-2.85-5.78.69-13.18,6.31-12.72a9.28,9.28,0,0,1,4,1.39,57,57,0,0,1,.88-11.32c.89-4.51,3.75-8.09,7.49-9.36,8.08-2.89,27.3-10.63,33-22.65,3-6.12,7.39-6.35,9.85-5.78C487.76,137.16,490.52,140.05,491.9,151.14Z" class="cls-12"></path><path d="M485,174.83s-7.19-3.7-9.95,3.12L473.18,206l-7.89-.69" class="cls-17"></path><path d="M464.31,217.81s-8.67-1.39-10.74-9.71" class="cls-17"></path><path d="M472,266.23s-5.82,55-40.6-6.47c0,0-60.2,15.59-63.26,98.67h41.39l2,223.94s65,12.82,88.18-7.51l-4.53-220.12s25.13,3,37.44-8.32C532.69,346.3,508,264.72,472,266.23Z" class="cls-8"></path><path d="M623,397.14V369.76s-72.61,15.48-91-32.47c-2.46-6.47-4.53-12.71-6.4-19.41-3.85-13.29-15.77-50.84-53.8-51.65l-5,52.69a252.57,252.57,0,0,0-1.48,27.27l-.39,359.7s53.8-8.09,78.92-51.53c0,0-40.1-185.69-35.76-260.68a8.39,8.39,0,0,1,.49.69c.2-4.39.59-6,1.08-10.17C533.87,426.61,595.55,427.53,623,397.14Z" class="cls-7"></path><path d="M363.71,337.64c12.32-41,36.46-65.17,69.46-73.84-1.08-2.66-1.67-4.16-1.67-4.16-21.19,4.16-47.89,23.92-59.32,37.44-10.25,12.25-17.73,32.24-20.79,50.95-7.19,43-.89,73,3,99.72C355,401.42,353.26,372.65,363.71,337.64Z" class="cls-18"></path><path d="M449.23,305.74c-6.4-18.25-13-34.55-16.06-41.94-32.91,8.67-62.07,36.05-71.73,73.84-8.08,31.54-12,88.16-4.53,122.94,7,26.46,16.85,54.31,16.85,54.31L352.28,660.37C387,695,456.13,705.78,456.13,705.78l1.58-349.19A148,148,0,0,0,449.23,305.74Z" class="cls-7"></path><path d="M373.76,515,352.28,660.48s35.86-18.37,79.22-37.21c0,0-23.45,3.59-45.92-16.87l4.34-57.19,17,10.16,5.42-8.66-24.73-7.63Z" class="cls-18"></path><path d="M435,318.11l-18.82-21.38,23.55,13.87Z" class="cls-19"></path><path d="M476.13,275.93l11.93,22.65-15.28,12.36,7.1,11.67-11.53,69.91" class="cls-6"></path><path d="M519.29,560.3l7.39,44.6s-12.32,19.3-39.12,15.37l-.79-32.47" class="cls-6"></path><path d="M416.23,551.86,423.81,575l-26.5-14.67-.79-14.67Z" class="cls-12"></path><path d="M471.8,266.23s26.21,16.64,27.49,82.84l3,.24S505.4,287,471.4,260.68Z" class="cls-20"></path><path d="M402.73,381.43c-6.21-41.48-3.25-109,32.71-129.3l-2.76,6s-38.52,26.8-26.41,121.9a2.49,2.49,0,0,0,1.38,2.08c12,5.66,19.22,28.2,23.36,50.15a2.4,2.4,0,0,1-1.48,2.77l-3.16.93a1.89,1.89,0,0,1-2.26-1.5,2.51,2.51,0,0,1,1.18-2.89l1.87-.7c-2.26-10.86-8.27-36.28-17.44-42.63-1.87-1.28-4.14-.58-5.22,1.61-1.38,3-2.07,8.09-1.38,17.22A122.06,122.06,0,0,0,405.78,424l2.66,12,1.48-.46a2,2,0,0,1,2.36,1.61l.2.7a2.4,2.4,0,0,1-1.28,2.77l-3.15,1.27a1.89,1.89,0,0,1-2.47-1.5c-2.26-8.78-9.95-41.25-4.63-54C401.35,385.24,402.83,382.24,402.73,381.43Z" class="cls-20"></path><path d="M500.08,362.36c4.46,0,8.08-4.24,8.08-9.47s-3.62-9.48-8.08-9.48-8.08,4.25-8.08,9.48S495.61,362.36,500.08,362.36Z" class="cls-20"></path><path d="M500.08,357.63c2.23,0,4-2.13,4-4.74s-1.81-4.74-4-4.74-4,2.12-4,4.74S497.85,357.63,500.08,357.63Z" class="cls-7"></path><path d="M429.82,268.54l-13.69,28.19,23.55,13.87L432,322.73s18.52,38.71,20.5,69.79" class="cls-6"></path><path d="M401.74,699.54c-.69,24.49-1.28,49.11-2,73.6q-1.62,58.41-3.15,116.82c-.2,9-.49,18.14-.69,27.16,0,.92,1.18.92,1.28,0,.69-24.5,1.28-49.11,2-73.61q1.62-58.41,3.15-116.82c.2-9,.5-18.14.69-27.15C402.92,698.61,401.74,698.61,401.74,699.54Z" class="cls-7"></path><path d="M510.23,373.11c-1,3.7-2.17,16.06-2.07,20.45,4.63,6.59,50.74,53.39,115,3.81v-5.54C589.64,415.63,533,413.21,510.23,373.11Z" class="cls-18"></path><path d="M453.08,190l10.54.35c2.56.12,4.63-2.19,4.73-5.2s-1.87-5.43-4.43-5.55l-10.55-.34c-2.56-.12-4.63,2.19-4.73,5.2S450.61,189.85,453.08,190Z" class="cls-21"></path><path d="M483.33,191l10.54.35c2.56.12,4.63-2.2,4.73-5.2s-1.87-5.43-4.43-5.55l-10.55-.34c-2.56-.12-4.63,2.19-4.73,5.2S480.76,190.89,483.33,191Z" class="cls-21"></path><path d="M1614.77,784.47s3.35-38.83,34.69-55.7c11.33-6.12,19.8-18,22.16-32.35a41.66,41.66,0,0,0-.1-15.26,99.55,99.55,0,0,1-3.15-33.62,46.38,46.38,0,0,1,8.18-22.65c4.92-7,11.62-19.18,12.42-34.78a45,45,0,0,0-7.88-27.38c-5.33-7.86-12.62-22.77-10-43.57,0,0,5.51-45.87-20.5-49.8,0,0-29.56,2.66-25.82,56,0,0,4,26.35-5,44.14,0,0-19.6,22.77-7.58,66.44,0,0,9.07,24.39-4.73,41.6C1607.48,677.58,1585.21,705.54,1614.77,784.47Z" class="cls-22"></path><path d="M1587.88,807.92s3.25-59.16-36.76-84.35c0,0-11.62-31.43-4.34-55,0,0,11.23-28.19,7.88-60.55,0,0-22.46-37.9-5.41-79.84,0,0,21.87-17.57,22.76-57.32,0,0,1.47-57.31,28.08-56,0,0,29.27,10.17,17.34,74.53,0,0-8.08,31.32-1.67,55.12,0,0,16.15,32.35-2.57,82.85,0,0-12.81,27.73-1.58,51.76C1611.52,679.2,1629.56,718.49,1587.88,807.92Z" class="cls-9"></path><path d="M1594.58,468.09l-7.6,365.6" class="cls-23"></path><path d="M1645,524.83l-34.88,304.58" class="cls-23"></path><path d="M1569.25,805.84s-3.75-35.24-32.52-49.8c-10.44-5.32-18.43-15.95-20.88-29a36.34,36.34,0,0,1-.2-13.87s6.4-22.53-.6-45.29c0,0-24.53-23-14.78-56.62,0,0,17-17,12.81-45.76,0,0-5.91-41.6,17.74-45.87,0,0,27,1.61,24.53,50.38,0,0-3.15,24.15,5.43,40.09,0,0,18.32,20.22,8.07,60.32,0,0-7.78,22.53,5,37.78C1573.88,708.32,1594.66,733.16,1569.25,805.84Z" class="cls-22"></path><path d="M1535.55,588.49l33.7,217.35" class="cls-23"></path><path d="M1631.72,898.74h-81.79L1541.07,799h99.52Z" class="cls-24"></path><path d="M1631.72,898.74h-81.79L1541.07,799h99.52Z" class="cls-3"></path><path d="M1552.4,814.28h75.18" class="cls-23"></path><path d="M1552.4,884.53h75.18" class="cls-23"></path><path d="M899.82,872.51s.89,25.54,26.21,31.43c0,0,24.83,3.58,22.76,22H864.94s-3.55-11.21,2.27-20.8a45.78,45.78,0,0,0,6.7-22.3c.1-4-.1-7.86-1-10.29Z" class="cls-25"></path><path d="M824.54,866.74s-3.94,23.68,18.23,35.7c0,0,22.17,9.71,16.85,26l-77-21.61s-1.18-11.21,5.91-18.6a40.67,40.67,0,0,0,10.35-18.72c.88-3.7,1.38-7.28,1-9.71Z" class="cls-25"></path><path d="M724.14,260c-11.14-9.48-37.54-11.21-46.61,4.27-8.47,14.91-8.47,43.1-5.32,60.66,13.89,5.09,50.94,14.22,81.59,8.32-1.58-2.19-3-6.47-3.95-9.7C744.83,304.47,737.34,271.89,724.14,260Z" class="cls-26"></path><path d="M756.85,299.16s28.38-91.63-53.21-86.78c0,0-36.55-25-36,110.58a35.58,35.58,0,0,0,9.36,3.58c-3.15-17.68-4.34-37,4.14-51.88,9.16-15.48,27.39-7.16,38.52,2.43,13.21,11.9,21.29,29.69,26.41,48.76a26.94,26.94,0,0,0,3.84,8.2c2.37-.46,4.63-.92,7-1.61A99.52,99.52,0,0,1,756.85,299.16Z" class="cls-9"></path><path d="M723.84,324.35a36.12,36.12,0,0,1,.4-4.39c-7.59-13.87-20.79-15-31.14-2.31a25.06,25.06,0,0,1,2.07,9.82C701.58,345.38,719.61,343.64,723.84,324.35Z" class="cls-13"></path><path d="M742.47,278.36s-37.05-16.64-44.64-59.51c0,0-40.59,54.08-7.09,94.52a23.05,23.05,0,0,1,2.26,4.16c9.36,7.28,21,7.39,31.14,2.31,0-.23,9.65-5.89,12.22-20.68C736.45,299.16,755.18,294.42,742.47,278.36Z" class="cls-12"></path><path d="M723.84,324.35c-10.54,5.54-21.18,10.51-28.77,3.12,0,4.39-1.48,9.24-5.81,14,0,0-5,13.63,21.77,26.81,0,0,19.81-2.43,19.81-27.39C730.84,340.87,723.45,338,723.84,324.35Z" class="cls-12"></path><path d="M781.48,552.1c-24-20.69-11.33-57.2-11.33-57.2-13.3-1.5-45.52-2.08-62.27-2.2-5.42,86.2,45.23,100.65,73.7,149.18,39,69.1,31.83,143.86,13.21,227.17l43.15,8.66C907.31,627,781.48,552.1,781.48,552.1Z" class="cls-27"></path><path d="M798.53,641.88C770,593.35,729.46,550.82,723.45,492.7c-36.75-.11-73.51,2.2-73.51,2.2-17.44,83,54.1,132.19,100.9,154.83,25.82,12.48,43.55,40.91,46,73.49,6.6,86.09-8.28,144.56-8.28,144.56l11.53,2.31C824,796.94,837.55,711,798.53,641.88Z" class="cls-25"></path><path d="M760.6,588.38A78.6,78.6,0,0,1,730.25,566c-17.54-21-16.75-40.21-16.75-40.21H670.34c-9.26,31.66-24.83,69.45-10.64,98.91,24.63,50.84,86.12,39.87,125.53,72.22,55,43.68,68.77,107.69,82.37,182H903C912.73,666.84,794.39,602.36,760.6,588.38Z" class="cls-27"></path><path d="M788.68,691.56c-39.42-32.35-96.56-19.64-121.2-70.48-14.19-29.35-6.4-63.79,2.86-95.45H654.08c-57,114.86,31.73,144.9,77.45,152.65,21.18,3.58,41,13.51,57.54,28.77a125.63,125.63,0,0,1,18.52,21.26c42.77,61.47,57.25,150.44,57.25,150.44h6.41C861.69,807.92,843.76,735.24,788.68,691.56Z" class="cls-25"></path><path d="M693.1,336.94s19.12,44,33.8,0l26.31,11.21L803.46,556.6H635.66l15.56-202.44Z" class="cls-7"></path><path d="M945.15,533.61A28,28,0,0,0,927.9,520.2a63.3,63.3,0,0,0-21.87-.11l-.89,19.53h37.25C945,539.5,946.53,536.15,945.15,533.61Z" class="cls-12"></path><path d="M897.56,524.13V539.5H908.1l2.16-20.11C901.6,520.2,897.56,524.13,897.56,524.13Z" class="cls-13"></path><path d="M757.64,431.46c-5.81-4.74-32.81-9.13-28,14.79,8.17,35.59,23.74,82.5,52.61,112.08,0,0,34.49,34.79,63.16,87.13,0,0-21.28-83.66-53.3-143.17-.3-.69,8.47-16.4,9-16.17C775.28,443.36,768.48,441.86,757.64,431.46Z" class="cls-25"></path><path d="M906.82,540.89V518.82s-50.85-15.26-97.25-66.1a52.27,52.27,0,0,1-11.83-20.33c-8-26.46-29.56-92.1-48.38-94.87,0,0-16-3-23.84-2.89,0,0-8.38,23.8-4,62.51a381.84,381.84,0,0,0,8.27,49,89.41,89.41,0,0,0,15.67,16.64c10.84,10.39,20.69,19.64,31.53,27.73,3,2.31,6.9,4.62,8.87,6.93a51,51,0,0,1,6.11,4.74.34.34,0,0,1,.2.11C803.46,512.35,842.18,541.58,906.82,540.89Z" class="cls-27"></path><path d="M831.74,512.81v15.37h10l3.05-19.88A42.69,42.69,0,0,0,831.74,512.81Z" class="cls-13"></path><path d="M879.33,522.28a28,28,0,0,0-17.25-13.4,47.76,47.76,0,0,0-19.41-.23l-2.26,19.53h36.16C879.13,528.18,880.81,524.83,879.33,522.28Z" class="cls-12"></path><path d="M693,336s7.59,24.84,9.56,60.43v29.93s41.38,79,135.19,81.11v22.19S759.31,555.1,689.65,502c0,0-21,216.42-6.8,274.31,0,0-87.89-.81-141.29-42.06,0,0,17.54-121.33,68.28-193.43,0,0,34.49-47.6,24.34-97.52,0,0-15.57-84,21.68-101.45C656,341.8,680.88,335.09,693,336Z" class="cls-27"></path><path d="M623,593.35l-13.59-8.67c-4.44,11.44-15.87,45.76-16.36,55.7,0,0,16.95,22.3,51.53,19.18l-74.88,91.63s-22.37-10.52-28-17c0,0,13-103.42,60.4-181.41l21.08-35.59Z" class="cls-25"></path><path d="M685.71,345.38l-11.53,12.71,15.57,19.06L685,387.44l10.84,23" class="cls-28"></path><path d="M733,345.38l13.89,15.83L733,373.11l6.89,11.09s-10.34,21.38-6.89,38" class="cls-28"></path><path d="M682.36,491s-32.81-13.63-42.66-75.22C639.7,415.75,638.61,479.65,682.36,491Z" class="cls-25"></path><path d="M687.88,254s10.25,1.5,7.19,11.09l-7.19,22.07,7.78,4.28" class="cls-29"></path><path d="M695.76,300.2s4.63,4.62,11.73,0" class="cls-29"></path><path d="M711.53,280.21l-10.35-3.7a3.57,3.57,0,0,1-1.87-4.28l.59-2.19a2.86,2.86,0,0,1,3.65-2.2l10.34,3.7a3.56,3.56,0,0,1,1.87,4.28l-.59,2.19A2.84,2.84,0,0,1,711.53,280.21Z" class="cls-21"></path><path d="M685.61,270l-10.34-3.7a3.57,3.57,0,0,1-1.88-4.27l.6-2.2a2.84,2.84,0,0,1,3.64-2.19L688,261.37a3.57,3.57,0,0,1,1.87,4.28l-.59,2.19A2.89,2.89,0,0,1,685.61,270Z" class="cls-21"></path><path d="M695.27,593.46c11.33,30.85,35.77,54.43,64,60.9,4.92,1.15,10,1.5,14.58,4.27,3.74,2.31,6.6,6,10,8.9,6.4,5.43,14.58,6.7,21.38,11.44,14.29,9.94,24.34,26.34,33.9,41.94a.64.64,0,0,0,1.08-.69c-8.57-14-17.34-28.43-29.36-38.71-6.5-5.55-13.4-8.09-20.69-11.55-7.69-3.59-12.32-12.14-20.5-14.79-7.49-2.43-15.07-3.12-22.46-6.24a84.73,84.73,0,0,1-21.48-13.41c-12.81-10.86-23-25.65-29.27-42.75C696.06,591.84,695,592.65,695.27,593.46Z" class="cls-7"></path><path d="M856.76,754a214.45,214.45,0,0,1,23.06,93.6.64.64,0,1,0,1.28,0,216.86,216.86,0,0,0-23.25-94.41C857.45,752.46,856.37,753.15,856.76,754Z" class="cls-7"></path><path d="M1110.58,164h-66.11V124.45c0-10.4,7.19-18.72,16-18.72h50c8.87,0,16,8.43,16,18.72v20.8C1126.55,155.53,1119.35,164,1110.58,164Z" class="cls-30"></path><path d="M1106.45,128.72H1062" class="cls-6"></path><path d="M1437.41,566H785.23v32.47h652.18Z" class="cls-3"></path><path d="M1453.87,544.82h-685v21.26h685Z" class="cls-2"></path><path d="M1106.45,141.66H1062" class="cls-6"></path><path d="M829.57,217.7H763.45V178.18c0-10.4,7.2-18.72,16-18.72h50.05c8.87,0,16,8.43,16,18.72V199C845.53,209.26,838.34,217.7,829.57,217.7Z" class="cls-30"></path><path d="M825.43,182.45H781" class="cls-6"></path><path d="M825.43,195.39H781" class="cls-6"></path><path d="M359.57,112.43h66.11V72.91c0-10.4-7.19-18.72-16-18.72H359.67c-8.87,0-16,8.44-16,18.72v20.8C343.61,104.11,350.7,112.43,359.57,112.43Z" class="cls-30"></path><path d="M363.61,77.3h44.54" class="cls-6"></path><path d="M363.61,90.13h44.54" class="cls-6"></path><path d="M1391.59,900s19.12,10.4,14.29,39.18c0,0-6.5,27.38,8.28,32.12l31.13-88s-7.28-7.86-16.75-5.43c-6.5,1.73-13.3,1.62-19.5-1.27-3.16-1.39-6-3.12-7.5-4.85Z" class="cls-7"></path><path d="M1329.52,916.42s-.79,24.73-25.32,30.62c0,0-24,3.59-22,21.38l81.29-.46s3.35-10.86-2.26-20.11a44,44,0,0,1-6.6-21.61c-.1-3.93.1-7.62.88-10Z" class="cls-31"></path><path d="M1283.6,512l36.65,413.44h13.41L1314.15,510.5Z" class="cls-14"></path><path d="M1309.12,538.11l20.8,387.21h30.34l14.39-384.43S1351,523,1337.8,565.15C1350.21,511.19,1309.12,538.11,1309.12,538.11Z" class="cls-8"></path><path d="M1307.75,512l1.37,26.23c6.21,25.19,13.7,38.82,13.7,38.82,17.34-6.58,38.23-14.79,51.53-28.31l1.38-36.74Z" class="cls-14"></path><path d="M1057.18,253.63l-1.58.81a3,3,0,0,1-4.14-1.85l-29.75-79.5a4,4,0,0,1,1.57-4.85l1.58-.81a3,3,0,0,1,4.14,1.85l29.75,79.5A3.81,3.81,0,0,1,1057.18,253.63Z" class="cls-32"></path><path d="M1221.33,111.51c1.38-7.52,5.61-12.72,9.36-11.79,2.27.58,3.75,3.24,4.43,6.93,3,.35,5.32,4.62,5.32,9.71,0,5.43-2.55,9.82-5.71,9.82a4.58,4.58,0,0,1-3.54-2.08c-1.68,2.08-3.65,3.24-5.53,2.77C1221.83,125.83,1220,119,1221.33,111.51Z" class="cls-14"></path><path d="M1244.39,204.29c.1,1.73.2,3.58.2,5.32,0,0,19.5,81.69,52.81,0a100.33,100.33,0,0,1-4.83-20c0,.11,0,.23-.1.23C1272.47,176.56,1252.67,175.4,1244.39,204.29Z" class="cls-12"></path><path d="M1273,736.51c-26.3-63.78-32.52-130-27.59-199l-32-.47s-25.42,290.5,183.36,369.07l5.13-7.17C1341.93,865.47,1302.22,806.88,1273,736.51Z" class="cls-14"></path><path d="M1422,513.5l3,32h44.93s-5.9-24.61-27.78-21.26l.6-20.8Z" class="cls-12"></path><path d="M1274.84,537.07l-43.95-8.66c-.78,10.51.2,28.54,0,39.05,7.29,5.78,22.47,15.6,29.85,21.15C1268.52,574.05,1271.59,553.6,1274.84,537.07Z" class="cls-14"></path><path d="M1292.77,537.19l-20.7-3.12s-3,29.46-9.65,48.07c0,0-18.23-6.13-28-14.21-1.18,58.35,6.8,116.59,29.06,170.66,29.17,70.49,75.68,130.8,135.78,164.2l16.65-23.23C1415.83,879.68,1259.86,748.88,1292.77,537.19Z" class="cls-8"></path><path d="M1052.74,285.06s-37.93-56-30.25-89.9c0,0,3.26-11,22.67,34.67,0,0,2.95-16,7.58-16.64,0,0,9.56-8,17.84,64.71Z" class="cls-12"></path><path d="M1291,165.93s-35.77-55.58-49.36,11.32c0,0,1.88,13.64,2.66,27,15.57,13.29,37.73,7.86,48.08-14.56,0-.11.1-.11.1-.23A165.31,165.31,0,0,1,1291,165.93Z" class="cls-13"></path><path d="M1295.23,124.79v-7.28c0-22.07-15.27-40-34.09-40s-34.1,17.91-34.1,40v5.09l.5,32.12c.2,13.52,5.92,26.23,15.77,33.4a30.15,30.15,0,0,0,17.93,6c18.81,0,34.09-17.91,34.09-40v-2.77c4.72,0,8.67-6,8.67-13.29S1300,124.79,1295.23,124.79Z" class="cls-12"></path><path d="M1306.67,111.51c-1.39-7.52-5.62-12.72-9.37-11.79-2.26.58-3.75,3.24-4.43,6.93-3,.35-5.33,4.62-5.33,9.71,0,5.43,2.56,9.82,5.72,9.82a4.56,4.56,0,0,0,3.54-2.08c1.68,2.08,3.65,3.24,5.52,2.77C1306.17,125.83,1308,119,1306.67,111.51Z" class="cls-14"></path><path d="M1227.94,120.29s13.5-6.71,18,5.77V153h14.78" class="cls-29"></path><path d="M1244.39,204.41l26.5,32.47L1294.64,200s87.79-10.52,129.87,74.29c0,0-50.75,246.82-71.54,268.08,0,0-55.77,31.66-118.83,0l-69.76-258.6C1164.38,283.9,1196.89,224.86,1244.39,204.41Z" class="cls-7"></path><path d="M1150.2,381.54a68.4,68.4,0,0,0,30.34.47c-.2,8.2-3.55,35.82-4.83,46.45,4.24-13.41,16.45-55.24,17-69.56C1185,365.6,1160,379.35,1150.2,381.54Z" class="cls-14"></path><path d="M1271,320.77,1246.36,213h.1l-2-8.67c-52.61,12.71-80.61,65.63-88,81.81a21.55,21.55,0,0,1-7.69,9.13c-7.88,5.08-16.55,6.12-25.13,4.74-27.09-4.39-53.4-33.28-53.4-33.28l-24.63,12.25c7.09,20.79,15.57,37.55,24.93,50.95h0c27.09,41,64.93,50.85,88.38,52.58a60.43,60.43,0,0,0,26.8-13.29c-.5,14.33-3.45,28.08-7.58,41.48-4.54,37.21-13.7,81.58-13.7,81.58,5.52,10.75,13.3,20.57,22,29.35,30,30,71.24,47.61,71.24,47.61C1285.57,471.09,1271,320.77,1271,320.77Z" class="cls-8"></path><path d="M1294.54,199l-6.9,120.75s8.88,164,37.84,242.42c0,0,66.7-21.49,84.15-71.06l-16-146.75,28.28,174.59,24-12.25S1507.37,180.84,1294.54,199Z" class="cls-8"></path><path d="M1363.38,259.66l-38.16,4.18.94,11.85,38.16-4.18Z" class="cls-14"></path><path d="M1373.49,304.86l-48.67,5.32,1.2,15.19,48.67-5.33Z" class="cls-33"></path><path d="M1389.06,442.75l-46.52-17.57-4,14.52,46.52,17.57Z" class="cls-33"></path><path d="M1185.74,457.11l46.52-17.57-4-14.52-46.52,17.57Z" class="cls-33"></path><path d="M1363.12,305.63l-6.6.69-1.77-21.72a3.06,3.06,0,0,1,2.36-3.35l1.47-.12a2.86,2.86,0,0,1,2.87,2.77Z" class="cls-7"></path><path d="M1358.78,293.61l1.68,21.38" class="cls-6"></path><path d="M1239.07,223.24l-16.56,28.31L1250.59,273l-6.2,15,22.66,37.1" class="cls-33"></path><path d="M1302.32,217.46l21,23.81-23.85,27.61,8.67,13.29-16,41.6" class="cls-33"></path><path d="M1245.17,174.71h12.32" class="cls-29"></path><path d="M1425.29,503.33l18.13-8.78" class="cls-33"></path><path d="M1054.12,288.87l18.33-12.36" class="cls-33"></path><path d="M1396.81,373.34l-3.15-29-7.18-27C1386.48,317.18,1388.15,347,1396.81,373.34Z" class="cls-14"></path><path d="M1237.89,169.63a3.38,3.38,0,0,1-3.16-2.43,3.79,3.79,0,0,1,2-4.62c.48-.23,13.2-5.09,26,0a3.8,3.8,0,0,1,2,4.62,3.27,3.27,0,0,1-4.24,2.19c-10.54-4.15-21.38,0-21.48,0A4.36,4.36,0,0,1,1237.89,169.63Z" class="cls-14"></path><path d="M662,391c1.47,17.22,4.53,35,10.54,51,2,5.08,4.73,10.63,9.16,13.28,5.91,3.47,12.81-2.19,18.33,1.74s6.3,13.52,7.58,20.34c1,5,2.57,8.89,5.72,12.47,6.5,7.17,15.57,11.91,24,14.79.79.24,1.09-1.15.3-1.38-8.48-2.89-18-7.74-24.24-15.37-6.8-8.32-3.84-22.19-10.84-30.27-3.15-3.59-6.8-3.59-10.94-3-4.73.69-8.57.93-12.31-3a30.37,30.37,0,0,1-5.23-8.9c-6.4-15.83-9.45-34.43-10.93-51.65A.6.6,0,1,0,662,391Z" class="cls-7"></path><path d="M752,510.15c8.77,3.58,17.64,7.05,26.8,8.9a135.93,135.93,0,0,0,26.51,2.42c.79,0,.79-1.38,0-1.5-9.26-.11-18.43-.58-27.49-2.66a155.49,155.49,0,0,1-25.42-8.66C751.63,508.42,751.23,509.8,752,510.15Z" class="cls-7"></path></g></g></svg>